<?xml version="1.0" standalone="no"?>
<!DOCTYPE svg PUBLIC "-//W3C//DTD SVG 20010904//EN"
 "http://www.w3.org/TR/2001/REC-SVG-20010904/DTD/svg10.dtd">
<svg version="1.0" xmlns="http://www.w3.org/2000/svg"
 width="400.000000pt" height="400.000000pt" viewBox="0 0 400.000000 400.000000"
 preserveAspectRatio="xMidYMid meet">

<g transform="translate(0.000000,400.000000) scale(0.100000,-0.100000)"
fill="#000000" stroke="none">
<path d="M2428 3779 c-13 -21 -96 -69 -119 -69 -7 0 5 16 27 35 21 20 30 32
19 26 -11 -5 -35 -23 -54 -40 -19 -17 -44 -31 -55 -31 -18 0 -19 2 -6 11 12 9
12 10 -3 5 -11 -3 -31 -9 -45 -13 -15 -3 -41 -15 -59 -25 -25 -15 -51 -20
-114 -20 -45 0 -86 5 -92 11 -8 8 -4 11 14 12 22 0 22 1 4 8 -11 5 -27 5 -36
0 -9 -5 -48 -10 -87 -13 -39 -2 -77 -8 -84 -12 -6 -4 -1 7 12 25 22 31 22 33
2 22 -11 -6 -23 -16 -25 -23 -4 -10 -6 -10 -6 0 -1 6 -12 12 -26 12 -17 0 -23
4 -19 14 3 8 0 17 -6 21 -6 3 -10 3 -9 -2 4 -24 -4 -35 -36 -49 -48 -20 -48
-19 -42 27 5 36 4 38 -9 22 -7 -10 -14 -23 -14 -29 0 -6 -8 -18 -17 -25 -11
-10 -14 -10 -9 -1 12 21 -7 14 -64 -23 -30 -19 -58 -35 -62 -35 -15 0 -8 18
15 34 19 14 20 15 2 9 -11 -3 -26 -11 -34 -17 -11 -8 -13 -8 -8 1 4 6 4 19 1
28 -5 13 -11 8 -25 -22 l-19 -38 5 35 c4 24 2 31 -5 24 -6 -6 -12 -20 -13 -31
0 -11 -7 -20 -14 -20 -8 0 -11 7 -8 15 3 7 -14 -1 -37 -20 -33 -26 -40 -29
-34 -13 6 16 5 18 -5 8 -7 -7 -19 -13 -27 -13 -7 0 -28 -11 -45 -24 -33 -25
-121 -76 -131 -76 -3 0 -6 8 -6 17 0 23 -14 6 -30 -37 -8 -19 -20 -44 -28 -55
-13 -19 -14 -19 -8 7 3 14 9 34 13 44 11 30 -15 6 -44 -39 -15 -23 -26 -44
-26 -47 -1 -11 -27 -30 -42 -30 -12 0 -15 -5 -9 -22 7 -23 6 -23 -15 -4 l-21
19 0 -36 c0 -40 -13 -47 -51 -27 -19 11 -28 -3 -9 -15 5 -3 7 -12 4 -19 -3 -8
-1 -17 5 -21 6 -3 11 -16 11 -28 0 -20 0 -20 -14 -1 -13 17 -14 17 -12 1 1 -9
8 -23 14 -29 16 -16 15 -25 -3 -32 -8 -3 -14 -2 -14 2 3 19 -15 52 -27 52 -8
0 -14 5 -14 10 0 6 -7 10 -15 10 -8 0 -15 5 -15 10 0 6 -5 10 -11 10 -6 0 -2
-12 9 -27 17 -25 52 -98 52 -110 0 -2 -10 6 -23 19 -12 13 -16 16 -8 6 13 -16
12 -20 -5 -33 -10 -8 -23 -15 -28 -15 -4 0 -6 -7 -2 -15 7 -20 4 -19 -41 6
-34 19 -36 19 -22 3 21 -24 35 -79 18 -68 -7 4 -5 -3 4 -17 21 -29 22 -49 1
-49 -8 0 -12 -4 -9 -10 6 -9 -8 -14 -27 -11 -20 3 -5 -11 21 -20 37 -13 31
-39 -9 -39 -37 0 -49 -19 -24 -37 16 -12 17 -15 4 -24 -12 -8 -9 -10 11 -6 22
3 25 1 21 -20 -2 -13 -8 -23 -13 -23 -5 0 -9 -8 -9 -18 0 -10 -11 -29 -25 -42
-24 -23 -35 -47 -15 -35 15 9 12 -12 -5 -45 -8 -16 -17 -42 -19 -57 -2 -15 -6
-35 -9 -43 -3 -8 -8 -34 -10 -58 -4 -34 -2 -42 10 -38 9 4 11 2 7 -6 -10 -16
-14 -58 -6 -58 4 0 7 -15 8 -32 2 -65 15 -154 35 -238 11 -47 22 -94 25 -105
2 -11 7 -33 11 -50 4 -16 7 -32 8 -35 0 -3 11 -21 23 -40 12 -19 20 -41 17
-48 -3 -8 3 -16 15 -19 11 -3 20 -11 20 -18 0 -18 51 -77 98 -115 49 -39 60
-100 18 -100 -5 0 -33 -18 -63 -41 -60 -45 -92 -51 -143 -24 -20 10 -55 18
-80 17 -25 0 -64 6 -88 14 -23 8 -60 14 -80 14 -30 0 -45 7 -70 33 -18 18 -32
36 -32 39 0 4 19 28 43 54 43 46 43 48 34 90 -7 31 -14 41 -22 34 -6 -5 -42
-12 -81 -14 -38 -3 -80 -8 -94 -11 -21 -5 -26 -3 -27 16 -1 12 -11 31 -22 43
-26 27 -30 113 -7 122 8 3 19 18 24 34 12 33 -14 96 -48 117 -17 12 -20 10
-26 -13 -8 -32 2 -230 18 -342 l11 -82 25 16 c18 12 26 13 32 4 4 -6 18 -17
31 -24 20 -10 24 -20 26 -63 3 -58 -13 -83 -53 -83 -13 0 -24 -4 -24 -10 0
-21 61 -199 98 -285 43 -100 48 -102 111 -59 41 28 65 30 105 9 27 -14 30 -14
63 15 33 29 37 30 136 30 60 0 126 -6 157 -15 30 -8 96 -26 145 -40 50 -14
124 -33 165 -42 55 -12 82 -23 103 -44 16 -16 34 -29 40 -30 7 -1 1 -4 -13 -8
l-25 -7 35 -22 c19 -12 41 -20 48 -17 7 3 11 1 8 -4 -3 -5 16 -18 43 -30 54
-23 65 -25 57 -13 -2 4 10 9 27 10 30 2 31 1 10 -11 l-22 -12 24 -11 c14 -7
25 -8 27 -2 2 5 11 6 21 3 9 -4 14 -12 10 -18 -4 -6 0 -8 10 -4 9 3 19 2 22
-3 10 -17 28 -11 21 7 -4 10 1 23 14 35 16 15 18 23 10 38 -6 11 -8 21 -5 21
3 1 9 2 14 3 17 2 25 16 10 16 -9 0 -24 7 -35 15 -18 14 -17 14 12 9 34 -6 60
15 50 41 -6 17 9 21 19 5 3 -5 13 -10 20 -10 8 0 31 -16 51 -35 19 -19 40 -35
45 -35 12 0 -6 36 -24 47 -14 9 -17 83 -3 83 5 0 3 7 -4 15 -10 12 -10 15 4
15 18 0 23 54 5 65 -12 8 -7 30 7 31 5 0 18 4 28 9 14 6 24 3 37 -13 9 -12 20
-22 24 -22 4 0 2 7 -5 15 -10 12 -10 15 0 15 6 0 14 -9 17 -20 5 -17 27 -26
56 -21 16 3 47 -20 47 -36 0 -14 -3 -13 -26 2 -32 21 -43 12 -19 -15 12 -14
25 -18 41 -14 15 4 24 2 24 -5 0 -6 -7 -11 -16 -11 -8 0 -12 -5 -8 -11 3 -6
14 -9 24 -6 13 3 17 0 13 -9 -3 -8 0 -14 7 -14 10 0 10 -3 0 -15 -10 -12 -10
-15 4 -15 9 0 16 -6 16 -14 0 -7 13 -23 28 -34 18 -14 29 -32 30 -53 1 -17 7
-39 12 -49 15 -28 12 -32 -12 -24 -22 6 -23 6 -5 -14 16 -17 16 -23 5 -41 -7
-12 -16 -21 -21 -21 -4 0 -5 -5 -2 -10 4 -7 -3 -9 -22 -4 -27 6 -26 5 10 -22
20 -15 37 -33 37 -41 0 -10 -9 -7 -30 8 -16 13 -33 20 -37 16 -3 -4 -1 -7 5
-7 7 0 12 -4 12 -10 0 -5 -7 -10 -16 -10 -8 0 -13 -4 -10 -9 4 -5 1 -22 -4
-37 -9 -23 -12 -25 -23 -11 -15 18 -57 32 -57 18 0 -24 20 -60 37 -65 10 -3
38 -25 63 -48 25 -24 70 -65 101 -93 61 -55 174 -176 229 -245 101 -128 200
-211 200 -169 0 5 -5 7 -12 3 -6 -4 -8 -3 -4 4 3 6 -3 14 -15 17 -13 4 -18 12
-15 22 4 9 1 13 -6 10 -11 -3 -53 61 -45 70 6 5 65 -61 69 -77 3 -16 36 -43
55 -46 7 -1 36 5 65 14 40 12 47 17 30 20 -15 2 -22 9 -18 17 2 7 -2 16 -10
19 -12 4 -12 9 -3 25 11 16 7 24 -29 57 -22 22 -52 47 -67 57 -26 18 -30 42
-7 42 30 0 174 -132 192 -176 7 -16 14 -29 17 -29 2 0 43 16 91 36 242 100
456 245 652 443 350 354 554 821 577 1321 6 134 -9 358 -26 388 -7 13 -15 6
-39 -31 -16 -26 -35 -62 -41 -80 -30 -80 -46 -102 -85 -115 -36 -12 -42 -11
-60 7 -15 16 -21 39 -25 104 -8 114 -37 153 -126 171 -38 7 -61 -12 -101 -82
-29 -52 -70 -82 -113 -82 -18 0 -106 80 -106 97 0 5 -11 25 -23 46 -25 39 -55
49 -66 20 -8 -19 81 -115 151 -164 44 -30 73 -73 73 -106 0 -13 -8 -19 -29
-21 -16 -1 -48 -9 -71 -17 -23 -8 -57 -15 -74 -15 -17 0 -48 -11 -68 -25 -20
-14 -43 -25 -50 -25 -7 1 -31 17 -53 36 -30 26 -36 37 -26 43 8 5 9 11 3 15
-18 11 -35 -24 -39 -85 -4 -58 -3 -62 27 -87 17 -14 40 -30 52 -36 12 -6 22
-20 24 -30 1 -10 8 -22 14 -26 6 -4 8 -15 4 -25 -5 -12 -4 -16 3 -12 8 5 9 -1
4 -20 -7 -27 -52 -61 -82 -62 -9 -1 -24 -17 -33 -36 -9 -19 -27 -41 -39 -50
-12 -8 -21 -19 -19 -23 2 -4 0 -22 -3 -40 -5 -27 -14 -36 -43 -48 -20 -8 -45
-19 -54 -24 -28 -16 -85 -12 -92 6 -9 23 -8 24 18 24 19 0 23 4 19 20 -3 11
-9 20 -13 20 -4 0 -10 9 -13 20 -5 19 6 25 41 21 24 -3 12 17 -15 24 -21 5
-24 8 -12 16 11 7 10 9 -6 9 -23 0 -64 40 -42 41 6 0 1 5 -12 10 -20 8 -22 11
-10 26 10 12 10 14 2 9 -9 -5 -13 0 -13 13 0 12 -4 21 -10 21 -5 0 -10 -8 -10
-17 0 -15 -2 -16 -9 -3 -6 8 -7 18 -5 22 3 4 -1 8 -8 9 -7 0 1 5 17 10 19 5
31 5 33 -1 2 -5 14 -2 27 6 13 9 29 13 35 9 5 -3 10 1 10 9 0 10 8 13 28 10
20 -3 23 -2 12 5 -13 9 -13 14 -2 31 7 11 10 25 7 29 -3 5 2 11 10 15 8 3 12
12 9 21 -3 8 -11 12 -17 8 -7 -4 -8 7 -3 35 5 35 4 40 -9 36 -12 -5 -13 -2 -8
12 7 18 6 18 -17 3 -14 -9 -38 -18 -53 -21 -25 -5 -28 -3 -23 16 5 21 5 21
-10 1 -15 -21 -59 -23 -79 -4 -15 15 -28 10 -15 -6 10 -12 10 -15 -3 -15 -9 0
-21 10 -28 21 -9 17 -13 19 -20 8 -5 -8 -9 -9 -9 -3 0 7 -14 11 -35 10 -27 -1
-35 3 -37 19 -2 11 -10 20 -18 20 -8 0 -14 8 -12 17 3 18 -14 33 -22 19 -3 -5
-23 -4 -46 2 -30 9 -46 8 -59 0 -16 -10 -21 -9 -27 5 -4 9 -6 25 -5 34 1 9 -5
42 -13 74 -8 32 -13 61 -10 66 3 5 1 15 -5 22 -23 27 -1 95 46 144 23 25 43
49 43 52 0 4 11 12 25 18 14 6 25 18 25 27 0 8 5 15 11 15 6 0 8 8 4 19 -3 11
0 23 7 27 6 4 14 2 16 -4 7 -21 18 -13 31 23 7 19 17 33 22 30 5 -4 9 -1 9 4
0 6 5 11 11 11 6 0 17 7 25 15 9 8 11 15 5 15 -6 0 -11 7 -11 15 0 21 -30 7
-40 -19 -8 -19 -9 -18 -9 7 -1 18 8 37 25 52 27 25 27 25 4 25 -16 0 -20 4
-16 15 3 10 -1 15 -12 15 -27 0 -72 23 -72 38 0 12 -12 16 -37 13 -7 -1 -15
10 -19 24 -3 14 -10 25 -15 25 -5 0 -9 12 -9 28 0 17 -3 23 -8 14 -6 -9 -12
-6 -22 12 -7 14 -17 23 -23 19 -5 -3 -6 4 -2 18 7 23 7 23 -8 4 -15 -20 -15
-20 -14 -1 2 15 -4 20 -23 20 -14 0 -28 7 -31 16 -3 8 -12 15 -20 15 -9 0 -13
8 -10 20 2 11 4 27 5 35 0 8 6 18 11 23 6 4 5 10 -4 16 -8 5 -9 11 -3 15 5 3
7 18 4 32 -4 21 -2 26 9 22 8 -4 23 -9 34 -13 l20 -8 -20 17 c-20 17 -20 17 2
13 16 -4 24 1 28 13 5 15 16 19 56 18 38 -1 54 3 69 19 12 14 29 20 49 19 17
-1 31 1 31 4 0 15 68 7 139 -17 l75 -25 22 27 c17 21 20 34 14 63 -8 39 -40
102 -53 102 -4 0 -5 11 -1 25 3 14 2 31 -3 38 -26 32 -22 61 14 111 l36 51
-42 -43 c-24 -24 -49 -41 -57 -38 -9 3 -11 0 -7 -11 4 -11 2 -14 -5 -9 -7 4
-12 19 -12 33 0 19 4 24 16 19 11 -4 15 -2 11 8 -3 8 -1 17 6 20 11 4 -17 10
-35 7 -5 0 -9 16 -9 37 -2 34 -2 35 -7 7 l-4 -30 -13 40 -13 40 -1 -52 c-1
-51 -15 -71 -24 -35 -4 16 -5 16 -6 0 -2 -28 -21 -21 -21 8 0 14 -4 23 -10 19
-6 -4 -8 -11 -5 -16 4 -5 3 -9 0 -9 -3 0 -11 14 -17 31 -7 20 -15 28 -24 25
-11 -4 -12 -1 -4 14 5 10 15 22 20 25 6 3 10 11 10 17 0 7 -6 6 -15 -2 -18
-15 -20 1 -3 18 7 7 9 12 5 12 -4 0 -12 -9 -19 -21z m-68 -84 c-13 -14 -31
-25 -39 -25 -11 0 -7 8 13 25 38 32 56 32 26 0z m92 -20 c12 -27 3 -49 -11
-26 -7 11 -11 10 -19 -4 -5 -11 -14 -15 -21 -10 -9 5 -6 14 11 32 19 21 20 23
4 17 -14 -5 -17 -4 -12 4 12 20 36 13 48 -13z m-27 -95 c-3 -5 -12 -10 -18
-10 -7 0 -6 4 3 10 19 12 23 12 15 0z m217 -75 c3 -14 1 -25 -3 -25 -5 0 -9 3
-9 8 0 4 -3 18 -7 31 -4 16 -2 22 4 18 6 -4 13 -18 15 -32z m-1802 -225 c0
-11 -4 -20 -10 -20 -5 0 -10 9 -10 20 0 11 5 20 10 20 6 0 10 -9 10 -20z
m1338 -115 c-3 -3 -9 2 -12 12 -6 14 -5 15 5 6 7 -7 10 -15 7 -18z m-14 -48
c14 -11 16 -18 9 -32 -9 -16 -11 -15 -17 9 -4 15 -11 24 -16 21 -6 -3 -10 -1
-10 4 0 15 12 14 34 -2z m-1464 -57 c8 -16 8 -20 -3 -20 -18 0 -39 24 -30 33
11 12 22 8 33 -13z m-10 -30 c8 -5 11 -10 5 -10 -5 0 -17 5 -25 10 -8 5 -10
10 -5 10 6 0 17 -5 25 -10z m-10 -52 c0 -5 -9 -4 -20 2 -11 6 -20 12 -20 14 0
2 9 2 20 -1 11 -3 20 -9 20 -15z m875 12 c3 -5 1 -10 -4 -10 -6 0 -11 5 -11
10 0 6 2 10 4 10 3 0 8 -4 11 -10z m747 -62 c-7 -7 -12 -8 -12 -2 0 14 12 26
19 19 2 -3 -1 -11 -7 -17z m228 -238 c0 -5 -4 -10 -10 -10 -5 0 -10 5 -10 10
0 6 5 10 10 10 6 0 10 -4 10 -10z m-849 -467 c40 -24 32 -36 -26 -39 -52 -3
-125 -43 -125 -68 0 -52 52 -94 105 -84 30 6 34 -15 6 -34 -22 -16 -53 -116
-42 -137 7 -12 11 -11 22 7 22 36 32 25 25 -26 -5 -40 -3 -52 12 -65 17 -16
21 -16 50 -2 24 12 36 14 52 5 14 -8 20 -8 20 0 0 6 5 8 10 5 8 -5 7 -11 -1
-21 -9 -11 -7 -14 15 -14 40 0 84 26 88 52 3 19 6 16 17 -17 8 -22 25 -57 38
-77 25 -41 31 -99 10 -116 -35 -29 -67 -25 -127 17 -32 23 -77 48 -98 55 -48
17 -118 60 -151 92 -13 13 -30 24 -37 24 -21 0 -91 156 -104 231 -12 71 -4
107 39 168 41 57 142 79 202 44z m616 -139 c-3 -3 -12 -4 -19 -1 -8 3 -5 6 6
6 11 1 17 -2 13 -5z m-400 -120 c20 -13 23 -12 33 6 12 23 32 27 24 5 -4 -8
-1 -15 5 -15 6 0 11 5 11 11 0 5 15 -2 34 -16 21 -16 33 -32 29 -41 -3 -8 0
-21 6 -28 9 -10 9 -16 1 -21 -8 -5 -5 -12 7 -21 14 -11 15 -13 2 -8 -14 4 -18
-6 -25 -63 -6 -46 -13 -68 -23 -68 -7 0 -29 29 -48 65 -43 81 -45 82 -85 87
-51 5 -54 8 -67 58 -10 42 -10 49 6 60 20 15 58 10 90 -11z m413 -24 c0 -5 -2
-10 -4 -10 -3 0 -8 5 -11 10 -3 6 -1 10 4 10 6 0 11 -4 11 -10z m-79 -43 c-4
-26 -6 -28 -9 -9 -2 12 -10 22 -19 22 -12 0 -13 3 -3 14 19 24 37 9 31 -27z
m-781 29 c0 -2 -7 -6 -15 -10 -8 -3 -15 -1 -15 4 0 6 7 10 15 10 8 0 15 -2 15
-4z m660 -17 c0 -4 -7 -6 -15 -3 -8 4 -15 1 -15 -7 0 -7 -2 -10 -5 -7 -3 3 -3
12 1 21 6 16 34 13 34 -4z m60 11 c0 -5 -9 -14 -19 -19 -15 -8 -20 -7 -25 5
-4 12 -1 14 14 9 11 -4 20 -2 20 4 0 6 2 11 5 11 3 0 5 -4 5 -10z m0 -50 c0
-5 -2 -10 -4 -10 -3 0 -8 5 -11 10 -3 6 -1 10 4 10 6 0 11 -4 11 -10z m1059
-169 c1 -12 -2 -12 -11 -3 -9 9 -16 8 -30 -5 -17 -15 -18 -15 -18 8 0 30 41
53 52 29 4 -8 7 -22 7 -29z m-87 -43 c-7 -7 -12 -8 -12 -2 0 14 12 26 19 19 2
-3 -1 -11 -7 -17z m38 -139 c0 -10 -7 -19 -15 -19 -8 0 -15 -4 -15 -8 0 -5 -8
-19 -19 -31 -16 -18 -20 -19 -31 -7 -8 11 -9 20 -1 33 6 10 11 12 11 6 0 -7 5
-13 11 -13 6 0 8 9 4 21 -5 13 -3 19 3 15 15 -9 32 17 22 34 -17 27 -10 35 10
11 11 -13 20 -32 20 -42z m-109 -22 c-1 -4 -1 -14 -1 -22 0 -8 -9 -19 -19 -24
-18 -10 -18 -8 -8 24 6 20 15 34 20 32 4 -1 8 -6 8 -10z m-44 -21 c-7 -13 -15
-22 -18 -20 -12 7 2 44 16 44 10 0 11 -5 2 -24z m481 -103 c12 10 14 9 10 -3
-3 -8 -14 -15 -26 -14 -11 0 -21 -2 -20 -5 2 -24 -3 -34 -13 -24 -8 8 -8 17 1
33 9 16 15 19 23 11 7 -7 15 -7 25 2z m-357 -90 c10 -25 19 -54 19 -66 -1 -20
-2 -21 -14 -4 -16 21 -26 22 -26 2 0 -10 -11 -15 -35 -15 -25 0 -35 -4 -35
-16 0 -11 -6 -14 -22 -8 -37 11 -50 26 -44 50 4 14 1 21 -7 20 -6 0 -14 3 -16
9 -4 10 50 45 60 39 8 -5 67 24 74 37 10 16 26 -1 46 -48z m-1471 -8 c0 -8 -2
-15 -4 -15 -2 0 -6 7 -10 15 -3 8 -1 15 4 15 6 0 10 -7 10 -15z m-25 -95 c-3
-5 -11 -10 -16 -10 -6 0 -7 5 -4 10 3 6 11 10 16 10 6 0 7 -4 4 -10z m-180
-120 c3 -6 -1 -7 -9 -4 -18 7 -21 14 -7 14 6 0 13 -4 16 -10z m40 0 c3 -6 -1
-7 -9 -4 -18 7 -21 14 -7 14 6 0 13 -4 16 -10z m42 -16 c-3 -3 -12 -4 -19 -1
-8 3 -5 6 6 6 11 1 17 -2 13 -5z m523 -334 c0 -5 -2 -10 -4 -10 -3 0 -8 5 -11
10 -3 6 -1 10 4 10 6 0 11 -4 11 -10z"/>
<path d="M1942 1878 c7 -19 38 -22 38 -4 0 10 -9 16 -21 16 -12 0 -19 -5 -17
-12z"/>
<path d="M2481 3724 c0 -11 3 -14 6 -6 3 7 2 16 -1 19 -3 4 -6 -2 -5 -13z"/>
<path d="M700 3301 c0 -5 7 -15 17 -22 15 -13 15 -12 4 9 -12 23 -21 28 -21
13z"/>
<path d="M2905 2670 c-16 -4 -47 -11 -68 -15 -23 -3 -54 -20 -76 -41 -21 -19
-41 -34 -45 -34 -3 0 -20 -12 -37 -27 -17 -16 -36 -28 -42 -28 -7 0 -11 -11
-9 -26 3 -22 -6 -33 -55 -68 -32 -22 -54 -41 -49 -41 5 0 1 -9 -9 -20 -10 -11
-15 -20 -11 -20 4 0 2 -9 -4 -20 -7 -14 -7 -20 0 -20 5 0 10 -6 10 -14 0 -8 7
-17 16 -20 9 -4 14 -13 10 -21 -4 -13 -2 -13 14 -5 31 17 105 12 131 -9 13
-10 38 -19 54 -19 17 -1 58 -3 91 -4 l62 -3 6 55 c4 30 14 62 23 72 17 19 63
25 63 7 0 -6 10 -9 23 -7 12 2 20 6 17 9 -3 3 1 13 9 22 7 10 9 17 4 17 -6 0
-18 18 -28 40 -20 44 -15 111 10 137 31 31 2 103 -41 103 -7 0 -18 2 -26 4 -7
2 -26 1 -43 -4z"/>
<path d="M2491 2081 c-8 -5 -9 -11 -3 -15 5 -3 15 1 22 9 14 16 3 20 -19 6z"/>
<path d="M2865 2032 c-7 -34 0 -56 16 -47 11 8 12 46 0 64 -7 10 -11 5 -16
-17z"/>
<path d="M2932 1704 c4 -21 22 -23 26 -1 2 10 -3 17 -13 17 -10 0 -15 -6 -13
-16z"/>
<path d="M2975 1640 c3 -5 8 -10 11 -10 2 0 4 5 4 10 0 6 -5 10 -11 10 -5 0
-7 -4 -4 -10z"/>
<path d="M700 1165 c0 -6 100 -35 117 -34 14 0 15 2 3 6 -8 3 -26 10 -40 16
-24 9 -80 18 -80 12z"/>
<path d="M880 1114 c0 -9 206 -84 229 -84 5 0 11 9 14 19 4 16 -3 20 -51 26
-31 4 -67 11 -81 17 -30 11 -111 27 -111 22z"/>
<path d="M515 970 c-3 -5 1 -10 9 -10 9 0 16 5 16 10 0 6 -4 10 -9 10 -6 0
-13 -4 -16 -10z"/>
<path d="M555 961 c3 -5 -4 -12 -15 -16 -19 -6 -28 -25 -12 -25 11 0 12 -39 1
-45 -5 -4 -9 0 -9 7 -1 8 -6 6 -15 -6 -8 -11 -19 -15 -27 -10 -9 5 -8 2 2 -11
14 -17 13 -18 -15 -11 -19 4 -25 3 -16 -3 19 -12 4 -33 -19 -26 -21 7 -36 -10
-19 -21 8 -5 9 -3 4 6 -5 8 -3 11 6 8 8 -3 13 -14 12 -26 -4 -32 190 -244 272
-298 21 -14 65 -9 65 7 0 5 18 9 40 9 33 0 42 5 54 28 8 15 15 23 16 18 0 -5
10 0 23 11 19 18 40 22 157 28 204 10 330 11 330 2 0 -4 10 -3 21 4 16 8 23 8
29 -1 5 -7 10 -8 14 -2 9 14 57 11 63 -4 7 -19 23 -18 23 1 0 8 4 15 10 15 5
0 7 -7 3 -16 -5 -14 -3 -15 15 -5 11 6 24 16 28 23 4 6 3 8 -3 5 -5 -3 -17 3
-26 14 -9 10 -25 19 -36 19 -10 0 -21 7 -25 15 -3 8 -12 15 -20 15 -9 0 -31 9
-51 20 -20 11 -42 20 -50 20 -8 0 -15 4 -15 9 0 5 -18 11 -40 15 -22 3 -40 10
-40 14 0 4 -12 9 -27 10 -16 1 -41 7 -58 12 -16 5 -48 12 -70 16 -59 9 -79 12
-85 14 -3 1 -9 2 -14 1 -4 -1 -13 2 -20 8 -6 5 -36 14 -67 20 -65 14 -189 57
-203 71 -6 6 -20 10 -33 10 -13 0 -23 5 -23 10 0 6 -9 10 -19 10 -11 0 -23 5
-26 10 -3 6 -19 10 -36 10 -16 0 -29 5 -29 10 0 6 -7 10 -16 10 -8 0 -13 -4
-9 -9z m13 -76 c-3 -3 -9 2 -12 12 -6 14 -5 15 5 6 7 -7 10 -15 7 -18z"/>
<path d="M1875 840 c3 -5 8 -10 11 -10 2 0 4 5 4 10 0 6 -5 10 -11 10 -5 0 -7
-4 -4 -10z"/>
<path d="M1910 821 c0 -6 4 -13 10 -16 6 -3 7 1 4 9 -7 18 -14 21 -14 7z"/>
<path d="M1317 779 c7 -7 15 -10 18 -7 3 3 -2 9 -12 12 -14 6 -15 5 -6 -5z"/>
<path d="M1360 763 c8 -4 80 -38 160 -76 80 -38 154 -73 165 -78 11 -5 38 -20
60 -34 50 -30 50 -30 50 -2 0 17 -6 24 -23 25 -31 3 -44 11 -36 23 3 6 0 10
-7 8 -35 -4 -49 2 -49 22 0 13 -8 23 -21 26 -11 3 -18 11 -15 18 3 8 -2 16
-11 19 -21 9 -31 -3 -13 -14 13 -8 12 -10 -2 -10 -9 0 -20 9 -23 21 -4 12 -12
18 -21 15 -8 -3 -14 -2 -14 3 0 4 -44 15 -97 24 -99 17 -130 20 -103 10z"/>
<path d="M1825 720 c-3 -5 -1 -10 4 -10 6 0 11 5 11 10 0 6 -2 10 -4 10 -3 0
-8 -4 -11 -10z"/>
<path d="M1801 697 c2 -2 12 -9 22 -16 14 -11 17 -11 17 1 0 7 -10 14 -21 15
-12 1 -20 1 -18 0z"/>
<path d="M1587 575 c-9 -6 -14 -15 -10 -18 3 -4 -3 -7 -15 -7 -31 0 -28 -28 4
-40 14 -6 29 -8 34 -5 5 3 14 -1 22 -8 7 -7 25 -18 40 -24 24 -11 26 -10 21 4
-4 11 -3 14 5 9 7 -4 12 -14 12 -23 0 -13 3 -13 15 -3 12 10 15 10 15 -1 0
-10 17 -15 62 -17 67 -4 80 -8 59 -21 -10 -7 -4 -13 22 -26 20 -9 40 -15 45
-13 15 5 -5 48 -22 48 -10 0 -13 -6 -10 -15 4 -11 2 -13 -9 -9 -9 3 -13 13
-10 24 4 14 -2 21 -22 26 -16 4 -24 12 -21 20 3 8 0 11 -10 7 -7 -3 -14 0 -14
6 0 6 -9 11 -20 11 -11 0 -20 4 -20 8 0 9 -44 33 -69 38 -7 1 -18 7 -24 13
-15 15 -40 14 -31 -1 4 -7 3 -8 -5 -4 -6 4 -9 11 -6 16 9 14 -20 18 -38 5z m3
-45 c0 -5 -2 -10 -4 -10 -3 0 -8 5 -11 10 -3 6 -1 10 4 10 6 0 11 -4 11 -10z
m186 -77 c-6 -6 -36 9 -36 18 0 5 9 4 20 -3 10 -7 18 -14 16 -15z m134 -53 c0
-5 -5 -10 -11 -10 -5 0 -7 5 -4 10 3 6 8 10 11 10 2 0 4 -4 4 -10z"/>
<path d="M1825 572 c-34 -24 23 -70 66 -53 22 8 20 10 -18 16 -33 6 -41 11
-38 26 4 21 4 22 -10 11z"/>
<path d="M1468 533 c7 -3 16 -2 19 1 4 3 -2 6 -13 5 -11 0 -14 -3 -6 -6z"/>
<path d="M1520 521 c0 -5 5 -13 10 -16 6 -3 10 -2 10 4 0 5 -4 13 -10 16 -5 3
-10 2 -10 -4z"/>
<path d="M1890 500 c0 -5 5 -10 10 -10 6 0 10 5 10 10 0 6 -4 10 -10 10 -5 0
-10 -4 -10 -10z"/>
<path d="M1989 443 c-13 -16 -12 -17 4 -4 9 7 17 15 17 17 0 8 -8 3 -21 -13z"/>
<path d="M2021 414 c0 -11 3 -14 6 -6 3 7 2 16 -1 19 -3 4 -6 -2 -5 -13z"/>
<path d="M2078 393 c-22 -5 -24 -20 -3 -20 8 0 16 6 19 14 3 7 4 12 3 12 -1
-1 -10 -3 -19 -6z"/>
<path d="M1950 350 c0 -5 5 -10 11 -10 5 0 7 5 4 10 -3 6 -8 10 -11 10 -2 0
-4 -4 -4 -10z"/>
<path d="M2005 340 c-16 -7 -17 -9 -3 -9 9 -1 20 4 23 9 7 11 7 11 -20 0z"/>
<path d="M2136 325 c4 -8 11 -15 16 -15 6 0 5 6 -2 15 -7 8 -14 15 -16 15 -2
0 -1 -7 2 -15z"/>
<path d="M2025 310 c-3 -5 3 -10 15 -10 12 0 18 5 15 10 -3 6 -10 10 -15 10
-5 0 -12 -4 -15 -10z"/>
<path d="M1010 270 c0 -18 88 -51 175 -65 211 -35 322 -70 577 -179 21 -9 82
-18 145 -22 114 -7 363 10 372 25 4 5 20 7 37 5 37 -4 84 7 84 21 0 6 -4 11
-10 11 -5 1 -13 3 -17 4 -5 1 -11 2 -15 1 -5 0 -7 2 -5 7 1 4 -8 17 -21 30
-12 12 -22 20 -22 17 0 -3 -9 4 -20 15 -22 22 -40 26 -40 10 0 -5 -8 -10 -17
-10 -14 0 -15 -2 -4 -9 9 -6 10 -11 3 -15 -6 -4 -9 -13 -6 -20 3 -7 -2 -16
-10 -19 -12 -5 -13 -2 -6 18 5 14 6 25 1 25 -5 0 -11 -10 -15 -23 -4 -18 -13
-23 -43 -24 -21 0 -45 -2 -53 -4 -8 -2 -14 1 -15 8 0 18 -15 28 -15 10 0 -9
-4 -17 -10 -17 -14 0 -12 12 5 37 14 20 14 22 -4 20 -11 0 -17 -5 -15 -9 3 -4
-4 -8 -15 -8 -11 0 -22 4 -25 8 -6 9 -82 9 -92 0 -3 -4 -12 -4 -20 -1 -12 4
-12 8 -2 21 10 13 7 13 -16 -2 -29 -18 -29 -18 -23 3 6 24 -11 29 -20 5 -4
-12 -8 -13 -14 -3 -4 7 -21 12 -37 12 -19 0 -28 5 -26 12 3 8 -6 11 -28 8 -21
-2 -27 0 -16 4 15 7 14 10 -8 20 -21 10 -25 9 -21 -1 4 -10 -1 -12 -15 -8 -11
2 -22 11 -25 19 -4 9 -18 14 -37 12 -17 -1 -39 2 -49 6 -9 4 -26 5 -37 2 -14
-4 -20 0 -21 11 0 14 -2 13 -9 -3 -5 -11 -9 -15 -9 -10 -1 6 -18 12 -38 13
-21 2 -40 7 -44 13 -3 5 -21 9 -40 9 -41 -1 -141 9 -147 15 -3 2 -13 0 -23 -6
-14 -7 -19 -6 -19 2 0 8 -4 9 -13 0 -8 -6 -17 -7 -21 -3 -9 8 -126 11 -126 2z
m540 -60 c0 -5 -4 -10 -10 -10 -5 0 -10 5 -10 10 0 6 5 10 10 10 6 0 10 -4 10
-10z m77 -17 c3 -7 -4 -9 -16 -6 -12 3 -18 9 -15 15 7 11 26 6 31 -9z m268
-103 c3 -5 1 -10 -4 -10 -6 0 -11 5 -11 10 0 6 2 10 4 10 3 0 8 -4 11 -10z
m80 0 c3 -5 1 -10 -4 -10 -6 0 -11 5 -11 10 0 6 2 10 4 10 3 0 8 -4 11 -10z
m45 0 c0 -5 -4 -10 -10 -10 -5 0 -10 5 -10 10 0 6 5 10 10 10 6 0 10 -4 10
-10z m220 -50 c0 -5 -2 -10 -4 -10 -3 0 -8 5 -11 10 -3 6 -1 10 4 10 6 0 11
-4 11 -10z"/>
<path d="M2053 265 c0 -8 8 -15 18 -15 10 0 21 -4 24 -10 3 -5 1 -10 -4 -10
-6 0 -11 -7 -11 -15 0 -8 -8 -15 -17 -16 -11 0 -13 -3 -5 -6 7 -3 29 11 49 31
31 30 34 36 20 42 -9 3 -24 4 -32 0 -8 -3 -15 -1 -15 4 0 6 -6 10 -13 10 -8 0
-14 -7 -14 -15z"/>
<path d="M2195 270 c3 -5 11 -10 16 -10 6 0 7 5 4 10 -3 6 -11 10 -16 10 -6 0
-7 -4 -4 -10z"/>
<path d="M2115 210 c-10 -11 -15 -23 -12 -27 4 -3 7 -1 7 5 0 7 5 12 11 12 6
0 8 -7 5 -16 -5 -14 -4 -15 9 -4 12 10 15 9 16 -6 0 -18 1 -18 9 1 5 12 9 15
9 5 1 -11 4 -11 13 -2 16 16 25 15 32 -4 3 -8 2 -12 -4 -9 -6 3 -20 -1 -32 -9
-18 -13 -19 -16 -6 -16 26 0 68 18 68 30 0 6 -21 20 -47 32 -27 12 -51 24 -54
25 -3 2 -14 -6 -24 -17z"/>
<path d="M1940 139 c0 -5 5 -7 10 -4 6 3 10 8 10 11 0 2 -4 4 -10 4 -5 0 -10
-5 -10 -11z"/>
<path d="M2113 124 c-17 -18 -17 -19 14 -21 14 0 22 2 16 5 -5 4 -12 12 -14
19 -3 8 -8 7 -16 -3z"/>
<path d="M2166 105 c4 -8 11 -15 16 -15 6 0 5 6 -2 15 -7 8 -14 15 -16 15 -2
0 -1 -7 2 -15z"/>
</g>
</svg>
